<svg width="202" height="70" viewBox="0 0 202 70" fill="none" xmlns="http://www.w3.org/2000/svg">
<path d="M27.8353 16.0793H30.4862C31.7631 16.0793 32.7416 15.7185 33.4286 14.9898C34.1157 14.2681 34.4626 13.2618 34.4626 11.9711C34.4626 11.4784 34.4141 11.0134 34.3239 10.5693C34.2267 10.1251 34.074 9.68793 33.8589 9.25767C33.6438 8.82047 33.3592 8.37633 33.0123 7.91832C32.6653 7.4603 32.235 6.97453 31.7284 6.45405L29.8339 4.49707L27.8561 6.5859L30.049 8.7372C30.8748 9.53526 31.4647 10.1668 31.8117 10.6387C32.1587 11.1106 32.3322 11.5408 32.3322 11.9294C32.3322 12.3181 32.2142 12.6512 31.9713 12.8871C31.7354 13.1161 31.3051 13.2341 30.7014 13.2341H27.3079V11.7559H25.0941V13.2757C25.0941 14.2334 25.3301 14.9412 25.8089 15.3923C26.2877 15.8503 26.9609 16.0793 27.8283 16.0793" fill="#231F20"/>
<path d="M38.9803 0H36.6555V16.0792H38.9803V0Z" fill="#231F20"/>
<path d="M45.7742 20.7775C46.6764 20.4305 47.4398 19.9239 48.0435 19.2577C48.6542 18.5915 49.1053 17.7865 49.4106 16.8358C49.716 15.885 49.8686 14.8025 49.8686 13.588C49.8686 11.5755 49.487 10.0002 48.7167 8.86906C47.9464 7.73789 46.8846 7.17578 45.5244 7.17578C44.8998 7.17578 44.3239 7.30763 43.7964 7.5644C43.269 7.82811 42.811 8.18897 42.4293 8.65393C42.0476 9.11888 41.7423 9.66018 41.5272 10.2847C41.312 10.9093 41.201 11.5825 41.201 12.3042C41.201 13.5047 41.5272 14.4416 42.1795 15.1078C42.8318 15.774 43.7479 16.1071 44.9207 16.1071C45.6285 16.1071 46.2253 15.9475 46.7111 15.6213C47.1969 15.2952 47.5369 14.8025 47.7451 14.1362H47.877V14.6775C47.877 15.8226 47.4398 16.7386 46.5723 17.4256C45.7048 18.1127 44.3447 18.4597 42.4848 18.4597H41.0483V21.3049H42.6375C43.8242 21.3049 44.8721 21.1314 45.7742 20.7844M46.9679 13.1369C46.6001 13.1994 46.1143 13.2341 45.5244 13.2341H45.0664C44.4557 13.2341 43.9977 13.13 43.6785 12.9287C43.3592 12.7275 43.1996 12.3944 43.1996 11.9294C43.1996 11.3812 43.387 10.9232 43.7756 10.5623C44.1573 10.2015 44.6639 10.021 45.2885 10.021C46.0102 10.021 46.6139 10.2709 47.0928 10.7844C47.5716 11.291 47.8214 11.9641 47.8492 12.8038C47.6341 12.9634 47.3357 13.0745 46.9679 13.1439" fill="#231F20"/>
<path d="M56.4337 11.1927L56.1075 9.27734L53.9978 9.62433L54.4559 12.3863C54.5253 12.8096 54.5877 13.2191 54.6294 13.6146C54.671 14.0102 54.6918 14.3919 54.6918 14.7527C54.7057 15.9533 54.4142 16.8693 53.8244 17.5008C53.2275 18.1323 52.2352 18.4446 50.8472 18.4446H50.0006V21.2899H50.8681C51.8813 21.2899 52.7626 21.1303 53.5051 20.8041C54.2546 20.4779 54.8653 20.0199 55.3511 19.437C55.8369 18.8471 56.1977 18.1532 56.4267 17.3482C56.6557 16.5432 56.7737 15.6549 56.7737 14.6833C56.7737 14.2323 56.7459 13.7118 56.6835 13.1219C56.628 12.5251 56.5378 11.8797 56.4198 11.1857" fill="#231F20"/>
<path d="M68.8832 23.1855C68.5362 23.1855 68.2517 23.2896 68.0227 23.4978C67.8006 23.706 67.6896 24.053 67.6896 24.5318C67.6896 25.0107 67.8006 25.3299 68.0227 25.545C68.2517 25.7532 68.5362 25.8573 68.8832 25.8573H69.251C69.598 25.8573 69.8825 25.7532 70.1115 25.545C70.3336 25.3368 70.4446 24.9968 70.4446 24.5318C70.4446 24.0669 70.3336 23.713 70.1115 23.4978C69.8825 23.2896 69.598 23.1855 69.251 23.1855H68.8832Z" fill="#231F20"/>
<path d="M70.6876 21.2972C71.9298 21.2972 73.0471 21.1584 74.0325 20.8878C75.0179 20.6102 75.8507 20.2146 76.5308 19.6941C77.2109 19.1737 77.7313 18.5352 78.0992 17.7719C78.46 17.0085 78.6404 16.148 78.6404 15.1764C78.6404 14.3645 78.4739 13.7399 78.1547 13.3097C77.8285 12.8725 77.2733 12.5879 76.4892 12.4422L73.6855 11.9009C72.8736 11.7413 72.2768 11.547 71.8951 11.311C71.5134 11.082 71.3191 10.7559 71.3191 10.3326C71.3191 9.98557 71.3955 9.64553 71.5551 9.31937C71.7147 8.9932 71.9298 8.70868 72.1935 8.45885C72.4642 8.20902 72.7695 8.01471 73.1165 7.86898C73.4635 7.72325 73.8243 7.65385 74.206 7.65385C74.7542 7.65385 75.2192 7.79264 75.6078 8.07023C75.9895 8.34782 76.3087 8.68786 76.5516 9.09036L78.571 7.26523C78.1685 6.49493 77.6411 5.89812 76.9957 5.46092C76.3504 5.02372 75.5939 4.80859 74.7265 4.80859C73.9701 4.80859 73.2692 4.99596 72.6168 5.36377C71.9645 5.73157 71.3955 6.21734 70.9097 6.80721C70.4239 7.40402 70.0422 8.06329 69.7646 8.79889C69.487 9.52756 69.3552 10.2562 69.3552 10.9849C69.3552 12.0258 69.6814 12.8516 70.3406 13.4554C70.9999 14.0591 71.9853 14.4825 73.3039 14.7254L76.6696 15.336C76.6141 16.2521 76.1283 16.9599 75.2261 17.4735C74.317 17.987 73.0679 18.2438 71.4787 18.2438H69.8687C68.4808 18.2438 67.3913 17.9662 66.6071 17.411C65.8229 16.8558 65.4343 16.0716 65.4343 15.0723C65.4343 14.5935 65.5245 14.0383 65.698 13.4138C65.8715 12.7822 66.0936 12.1646 66.3711 11.5539L64.5044 10.9849C64.1852 11.7552 63.9353 12.5394 63.7549 13.3305C63.5745 14.1285 63.4843 14.8503 63.4843 15.5026C63.4843 16.4186 63.6439 17.2306 63.977 17.9453C64.3031 18.6601 64.775 19.2708 65.3996 19.7705C66.0242 20.2701 66.7736 20.6518 67.6619 20.9086C68.5433 21.1723 69.5495 21.2972 70.6807 21.2972" fill="#231F20"/>
<path d="M72.124 23.1855C71.7771 23.1855 71.4925 23.2896 71.2635 23.4978C71.0415 23.706 70.9304 24.053 70.9304 24.5318C70.9304 25.0107 71.0415 25.3299 71.2635 25.545C71.4925 25.7532 71.7771 25.8573 72.124 25.8573H72.4918C72.8388 25.8573 73.1234 25.7532 73.3524 25.545C73.5744 25.3368 73.6855 24.9968 73.6855 24.5318C73.6855 24.0669 73.5744 23.713 73.3524 23.4978C73.1234 23.2896 72.8388 23.1855 72.4918 23.1855H72.124Z" fill="#231F20"/>
<path d="M85.3997 16.0793C86.6766 16.0793 87.6551 15.7185 88.3421 14.9898C89.0291 14.2681 89.3761 13.2618 89.3761 11.9711C89.3761 11.4784 89.3275 11.0134 89.2373 10.5693C89.1402 10.1251 88.9875 9.68793 88.7724 9.25767C88.5572 8.82047 88.2727 8.37633 87.9257 7.91832C87.5787 7.4603 87.1485 6.97453 86.6419 6.45405L84.7543 4.49707L82.7765 6.5859L84.9694 8.7372C85.7953 9.53526 86.3851 10.1668 86.7321 10.6387C87.0791 11.1106 87.2526 11.5408 87.2526 11.9294C87.2526 12.3181 87.1346 12.6512 86.8917 12.8871C86.6558 13.1161 86.2255 13.2341 85.6218 13.2341H82.2283V11.7559H80.0145V13.2757C80.0145 14.2334 80.2505 14.9412 80.7293 15.3923C81.2081 15.8503 81.8813 16.0793 82.7487 16.0793H85.3997Z" fill="#231F20"/>
<path d="M125.101 5.16981H125.469C125.816 5.16981 126.101 5.06572 126.33 4.85753C126.552 4.64934 126.663 4.3093 126.663 3.84434C126.663 3.37938 126.552 3.02546 126.33 2.81033C126.108 2.60214 125.816 2.49805 125.469 2.49805H125.101C124.754 2.49805 124.47 2.60214 124.241 2.81033C124.012 3.01852 123.901 3.3655 123.901 3.84434C123.901 4.32317 124.012 4.6424 124.241 4.85753C124.463 5.06572 124.754 5.16981 125.101 5.16981Z" fill="#231F20"/>
<path d="M127.211 11.7766C127.211 11.4435 127.19 11.041 127.149 10.5691C127.107 10.0972 127.044 9.61835 126.975 9.12564L126.67 7.16866L124.539 7.51564L124.886 9.47262C124.99 10.0694 125.053 10.5413 125.094 10.8952C125.129 11.2492 125.15 11.5406 125.15 11.7766C125.15 12.3248 124.956 12.7065 124.574 12.9147C124.192 13.1229 123.491 13.227 122.478 13.227H95.6842C95.0319 13.227 94.5739 13.1159 94.3032 12.9008C94.0326 12.6857 93.9007 12.2624 93.9007 11.6378V0H91.5759V11.9501C91.5759 13.4282 91.916 14.483 92.5891 15.1215C93.2623 15.7599 94.3171 16.0792 95.7536 16.0792H122.485C124.137 16.0792 125.337 15.7322 126.094 15.0382C126.85 14.3443 127.225 13.2547 127.225 11.7766" fill="#231F20"/>
<path d="M17.516 36.5097L17.2107 34.5527L15.0802 34.8997L15.448 36.8567C15.5521 37.4257 15.6146 37.8838 15.6562 38.2377C15.6909 38.5916 15.7117 38.8761 15.7117 39.0982C15.7117 39.3897 15.6284 39.6326 15.4619 39.8269C15.2953 40.0212 15.0108 40.1808 14.6014 40.2918C14.1989 40.4098 13.6645 40.4931 13.0052 40.5416C12.346 40.5902 11.534 40.618 10.5625 40.618H7.52292C6.59301 40.618 5.80883 40.5763 5.16344 40.4861C4.51806 40.4029 3.99064 40.2641 3.58814 40.0836C3.1787 39.9032 2.88724 39.6673 2.70681 39.3688C2.52638 39.0704 2.43616 38.7026 2.43616 38.2724C2.43616 37.8976 2.50556 37.4674 2.65129 36.9885C2.79702 36.5097 2.99827 36.0031 3.26198 35.4688L1.39521 34.9275C1.10375 35.6214 0.881681 36.3085 0.729008 36.9816C0.576336 37.6548 0.5 38.2863 0.5 38.8623C0.5 39.7575 0.645733 40.5208 0.937198 41.1454C1.22866 41.77 1.70056 42.2696 2.35983 42.6582C3.01909 43.0399 3.87961 43.3175 4.94831 43.4841C6.01008 43.6506 7.32861 43.7339 8.89003 43.7339C10.6319 43.7339 12.0684 43.6645 13.2134 43.5188C14.3585 43.373 15.2676 43.1301 15.9407 42.7832C16.6139 42.4362 17.0858 41.9643 17.3633 41.3675C17.6409 40.7776 17.7797 40.0212 17.7797 39.1051C17.7797 38.772 17.752 38.3765 17.7034 37.9185C17.6548 37.4604 17.5924 36.9955 17.516 36.5167" fill="#231F20"/>
<path d="M9.21619 45.3301H8.84839C8.5014 45.3301 8.21688 45.4342 7.98787 45.6424C7.7658 45.8505 7.64783 46.1975 7.64783 46.6764C7.64783 47.1552 7.75886 47.4744 7.98787 47.6896C8.20994 47.8977 8.5014 48.0018 8.84839 48.0018H9.21619C9.56317 48.0018 9.8477 47.8977 10.0767 47.6896C10.2988 47.4814 10.4098 47.1413 10.4098 46.6764C10.4098 46.2114 10.2988 45.8505 10.0767 45.6424C9.85464 45.4342 9.56317 45.3301 9.21619 45.3301Z" fill="#231F20"/>
<path d="M28.3836 45.3506H28.0158C27.6688 45.3506 27.3843 45.4547 27.1552 45.6698C26.9332 45.878 26.8221 46.225 26.8221 46.7038C26.8221 47.1827 26.9332 47.5019 27.1552 47.717C27.3773 47.9252 27.6688 48.0293 28.0158 48.0293H28.3836C28.7305 48.0293 29.0151 47.9252 29.2441 47.717C29.4661 47.5088 29.5772 47.1688 29.5772 46.7038C29.5772 46.2389 29.4661 45.8849 29.2441 45.6698C29.0151 45.4616 28.7305 45.3506 28.3836 45.3506Z" fill="#231F20"/>
<path d="M45.2468 31.4922C44.9137 31.4922 44.6361 31.5963 44.4071 31.8045C44.185 32.0127 44.067 32.3596 44.067 32.8385C44.067 33.3173 44.1781 33.6365 44.4071 33.8517C44.6291 34.0599 44.9067 34.164 45.2468 34.164H45.6354C45.9685 34.164 46.2461 34.0599 46.4751 33.8517C46.6971 33.6435 46.8082 33.3034 46.8082 32.8385C46.8082 32.3735 46.6971 32.0196 46.4751 31.8045C46.253 31.5963 45.9685 31.4922 45.6354 31.4922H45.2468Z" fill="#231F20"/>
<path d="M40.8125 32.8385C40.8125 33.3034 40.9235 33.6435 41.1525 33.8517C41.3746 34.0599 41.6661 34.164 42.0131 34.164H42.3809C42.7278 34.164 43.0124 34.0599 43.2414 33.8517C43.4634 33.6435 43.5814 33.3034 43.5814 32.8385C43.5814 32.3735 43.4704 32.0196 43.2414 31.8045C43.0193 31.5963 42.7278 31.4922 42.3809 31.4922H42.0131C41.6661 31.4922 41.3816 31.5963 41.1525 31.8045C40.9235 32.0127 40.8125 32.3596 40.8125 32.8385Z" fill="#231F20"/>
<path d="M43.6369 31.1649H44.0047C44.3517 31.1649 44.6362 31.0608 44.8513 30.8526C45.0665 30.6445 45.1775 30.3044 45.1775 29.8395C45.1775 29.3745 45.0665 29.0345 44.8513 28.8193C44.6362 28.6042 44.3517 28.4932 44.0047 28.4932H43.6369C43.2899 28.4932 43.0054 28.6042 42.7903 28.8193C42.5751 29.0345 42.4641 29.3745 42.4641 29.8395C42.4641 30.3044 42.5751 30.6375 42.7903 30.8526C43.0054 31.0608 43.2899 31.1649 43.6369 31.1649Z" fill="#231F20"/>
<path d="M54.7403 39.0913C54.7403 39.6118 54.6292 40.0004 54.4002 40.2433C54.1781 40.4931 53.7756 40.6111 53.1927 40.6111H51.4994C50.4099 40.6111 49.8686 40.0698 49.8686 38.9803V36.6555H47.7381V38.9803C47.7381 39.6326 47.6271 40.1045 47.412 40.3959C47.1969 40.6874 46.8776 40.8262 46.4543 40.8262H46.149C45.684 40.8262 45.3578 40.6805 45.1635 40.3959C44.9692 40.1045 44.8721 39.6326 44.8721 38.9803V37.5229H42.7416V38.9664C42.7416 39.6742 42.5959 40.1669 42.3044 40.4445C42.0129 40.729 41.548 40.8678 40.9165 40.8678C40.514 40.8678 40.1045 40.8123 39.702 40.7013C39.2995 40.5903 38.8901 40.4376 38.4876 40.2363L39.4036 38.432L37.5091 37.516L36.6417 39.2995C36.3918 39.8061 36.1073 40.1531 35.7742 40.3335C35.4411 40.5139 34.9484 40.6041 34.2961 40.6041H30.9095C29.82 40.6041 29.2787 40.0628 29.2787 38.9733V35.7811H27.1482V38.9733C27.1482 40.0628 26.5514 40.6041 25.3647 40.6041H24.6916H24.0184C23.3661 40.6041 22.9081 40.4931 22.6374 40.278C22.3668 40.0628 22.2349 39.6395 22.2349 39.015V27.3702H19.9102V39.3203C19.9102 40.7984 20.2502 41.8533 20.9233 42.4917C21.5965 43.1302 22.6513 43.4494 24.0878 43.4494H24.1086C25.0663 43.4494 25.788 43.2412 26.2738 42.8179C26.7596 42.3946 27.0927 41.7075 27.287 40.7499H27.398C27.5993 41.6798 28.0018 42.3599 28.5917 42.7901C29.1815 43.2273 30.042 43.4424 31.1524 43.4424H33.4772C34.3585 43.4424 35.0872 43.3731 35.6493 43.2343C36.2114 43.0955 36.7041 42.804 37.1274 42.3529L37.6479 42.6583C38.2725 43.033 38.7999 43.3037 39.2301 43.4633C39.6673 43.6229 40.0907 43.7062 40.514 43.7062C41.1663 43.7062 41.6937 43.4771 42.1032 43.0191C42.5057 42.5611 42.7694 41.8741 42.8873 40.9442H43.0192C43.2968 42.7832 44.1781 43.7062 45.6701 43.7062C46.3641 43.7062 46.9193 43.4841 47.3356 43.0399C47.7451 42.5958 47.9949 41.9018 48.0851 40.9442H48.217C48.3766 41.8116 48.7444 42.4501 49.3134 42.8456C49.8825 43.2481 50.7014 43.4424 51.7562 43.4424H53.2135C54.6015 43.4286 55.5938 43.0677 56.1768 42.3668C56.7666 41.6659 57.0581 40.5694 57.0581 39.0774V27.3633H54.7541V39.0774L54.7403 39.0913Z" fill="#231F20"/>
<path d="M62.1727 27.3779H59.8479V43.4571H62.1727V27.3779Z" fill="#231F20"/>
<path d="M77.4468 41.5268C77.4468 42.2832 77.3913 42.9147 77.2733 43.4421C77.1554 43.9626 76.9749 44.3859 76.7182 44.7052C76.4683 45.0244 76.1283 45.2534 75.7189 45.3991C75.3094 45.5449 74.7959 45.6143 74.1852 45.6143H72.5752C71.562 45.6143 70.764 45.3436 70.181 44.8023C69.5981 44.261 69.3136 43.4977 69.3136 42.5122C69.3136 42.0195 69.3968 41.4505 69.5773 40.8051C69.7508 40.1597 69.9728 39.5351 70.2504 38.9244L68.3837 38.3623C68.0644 39.1326 67.8146 39.9099 67.6342 40.7079C67.4537 41.506 67.3635 42.2277 67.3635 42.88C67.3635 44.719 67.8771 46.1486 68.9041 47.1618C69.9312 48.175 71.4232 48.6816 73.3802 48.6816C75.5662 48.6816 77.1762 48.1056 78.2033 46.9467C79.2303 45.7877 79.7439 43.9834 79.7439 41.5337V27.3838H77.4399V41.5337L77.4468 41.5268Z" fill="#231F20"/>
<path d="M108.613 39.5501C108.266 39.6542 107.898 39.7305 107.502 39.7791C107.114 39.8277 106.732 39.8554 106.371 39.8554C105.282 39.8554 104.421 39.6334 103.783 39.1892C103.144 38.7451 102.825 38.1483 102.825 37.3849C102.825 36.7326 103.047 36.219 103.498 35.8582C103.949 35.4973 104.574 35.3099 105.386 35.3099C105.955 35.3099 106.448 35.421 106.878 35.65C107.308 35.879 107.683 36.2468 108.016 36.7534L109.973 34.9352C109.508 34.158 108.925 33.5473 108.224 33.117C107.523 32.6868 106.635 32.4647 105.559 32.4647C104.893 32.4647 104.276 32.5896 103.7 32.8464C103.13 33.1031 102.631 33.4501 102.201 33.8873C101.77 34.3315 101.437 34.8519 101.201 35.4487C100.958 36.0525 100.84 36.6979 100.84 37.3918C100.84 38.0025 100.951 38.5716 101.167 39.1129C101.382 39.6472 101.673 40.1122 102.034 40.5008V40.6118H99.4039C98.925 40.6118 98.5642 40.5216 98.3282 40.3412C98.0923 40.1608 97.8702 39.793 97.662 39.2447L95.9896 34.7687H93.4705L92.1658 35.5528C90.1256 36.7534 89.0985 38.1899 89.0985 39.8554C89.0985 39.9734 89.0985 40.0775 89.1124 40.1816C89.1193 40.2857 89.1332 40.3828 89.1471 40.4869C88.9042 40.5424 88.6405 40.5841 88.3629 40.598C88.0853 40.6118 87.7383 40.6188 87.3219 40.6188H86.6488C85.9965 40.6188 85.5385 40.5077 85.2678 40.2926C84.9972 40.0775 84.8653 39.6542 84.8653 39.0296V27.3779H82.5405V39.328C82.5405 40.8061 82.8806 41.861 83.5537 42.4994C84.2269 43.1379 85.2817 43.4571 86.7182 43.4571H86.739C88.0298 43.4571 88.8625 42.7701 89.2373 41.396H89.4108C89.6745 42.0206 90.1186 42.5202 90.7501 42.895C91.3816 43.2697 92.2005 43.4571 93.2137 43.4571H95.9271V41.7638L96.059 41.743C96.4198 42.3537 96.8501 42.7909 97.3497 43.0546C97.8494 43.3252 98.5364 43.4571 99.4039 43.4571C100.507 43.4571 101.465 43.4432 102.284 43.4155C103.103 43.3877 103.838 43.3391 104.498 43.2628C105.157 43.1934 105.781 43.0962 106.364 42.9713C106.947 42.8464 107.572 42.6937 108.224 42.5064L111.312 41.5695L110.598 39.0018L108.599 39.5431L108.613 39.5501ZM92.5961 40.6118C92.0895 40.6118 91.687 40.5355 91.3886 40.3759C91.0902 40.2163 90.9444 39.9456 90.9444 39.5709C90.9444 39.2517 91.0971 38.9533 91.4094 38.6757C91.7217 38.405 92.1658 38.1413 92.7487 37.8915L94.2685 37.2184L95.5524 40.6049H92.5961V40.6118Z" fill="#231F20"/>
<path d="M121.986 39.2577C121.861 39.0218 121.701 38.7789 121.507 38.5291C121.312 38.2862 121.07 38.0155 120.778 37.7241L119.82 36.7872C120.181 36.468 120.487 36.1627 120.73 35.8712C120.979 35.5797 121.174 35.2813 121.319 34.969C121.465 34.6567 121.569 34.3306 121.639 33.9905C121.701 33.6505 121.736 33.2619 121.736 32.8247V27.3701H119.432V32.8247C119.432 33.4631 119.362 33.9628 119.224 34.3375C119.085 34.7053 118.835 35.0731 118.474 35.434L113.172 30.1321L111.479 31.874L116.698 37.0926L112.853 40.6318V43.4562H119.612C120.022 43.4562 120.39 43.3868 120.723 43.248C121.056 43.1092 121.34 42.9219 121.583 42.672C121.819 42.4292 122.006 42.1377 122.138 41.8115C122.27 41.4854 122.333 41.1314 122.333 40.7567C122.333 40.4791 122.305 40.2223 122.256 39.9725C122.208 39.7296 122.117 39.4867 121.993 39.2439M115.56 40.611L115.539 40.5277L117.995 38.3764L120.258 40.6179H115.566L115.56 40.611Z" fill="#231F20"/>
<path d="M112.541 27.5784V29.1884H117.495V27.4465H115.955C114.942 27.4465 114.435 27.1897 114.435 26.6623C114.435 26.4888 114.511 26.3431 114.671 26.2182C114.831 26.0933 115.032 26.0308 115.282 26.0308C115.698 26.0308 116.08 26.2043 116.413 26.5513L117.391 25.2397C117.148 24.9552 116.829 24.7262 116.448 24.5527C116.066 24.3792 115.677 24.2959 115.289 24.2959C114.636 24.2959 114.095 24.4902 113.672 24.8788C113.241 25.2674 113.033 25.7532 113.033 26.3431C113.033 26.7872 113.172 27.1689 113.45 27.4881L113.429 27.5714H112.561L112.541 27.5784Z" fill="#231F20"/>
<path d="M126.864 27.3779H124.539V43.4571H126.864V27.3779Z" fill="#231F20"/>
<path d="M73.5328 69.6666V63.8998L68.5085 54.9893H71.6175L75.0041 61.1933H75.0457L78.349 54.9893H81.3747L76.3295 63.879V69.6666H73.5328Z" fill="#231F20"/>
<path d="M84.1506 69.8966C83.5746 69.8966 83.1513 69.7508 82.8806 69.4663C82.61 69.1818 82.4712 68.814 82.4712 68.3629V67.9882C82.4712 67.5371 82.61 67.1693 82.8806 66.8709C83.1513 66.5794 83.5815 66.4268 84.1506 66.4268C84.7196 66.4268 85.1638 66.5725 85.4344 66.8709C85.6981 67.1624 85.8369 67.5371 85.8369 67.9882V68.3629C85.8369 68.814 85.7051 69.1818 85.4344 69.4663C85.1707 69.7508 84.7405 69.8966 84.1506 69.8966Z" fill="#231F20"/>
<path d="M89.8688 69.6666V54.9893H99.5426V57.4459H92.6446V60.999H98.7446V63.4626H92.6446V67.203H99.5426V69.6666H89.8688Z" fill="#231F20"/>
<path d="M104.733 69.8966C104.157 69.8966 103.734 69.7508 103.464 69.4663C103.193 69.1818 103.054 68.814 103.054 68.3629V67.9882C103.054 67.5371 103.193 67.1693 103.464 66.8709C103.734 66.5794 104.164 66.4268 104.733 66.4268C105.303 66.4268 105.747 66.5725 106.017 66.8709C106.281 67.1624 106.413 67.5371 106.413 67.9882V68.3629C106.413 68.814 106.281 69.1818 106.017 69.4663C105.747 69.7508 105.323 69.8966 104.733 69.8966Z" fill="#231F20"/>
<path d="M115.379 69.9173C114.414 69.9173 113.54 69.7577 112.763 69.4455C111.985 69.1262 111.319 68.6543 110.764 68.0298C110.209 67.3983 109.786 66.6141 109.494 65.6842C109.203 64.7543 109.05 63.6717 109.05 62.4364C109.05 61.2012 109.196 60.1047 109.494 59.147C109.786 58.1893 110.209 57.3774 110.764 56.7251C111.319 56.0727 111.985 55.58 112.763 55.24C113.54 54.8999 114.414 54.7334 115.379 54.7334C116.697 54.7334 117.787 55.011 118.661 55.5731C119.529 56.1352 120.223 56.9818 120.743 58.113L118.37 59.376C118.162 58.7168 117.815 58.1893 117.343 57.7868C116.864 57.3843 116.212 57.19 115.386 57.19C114.345 57.19 113.526 57.544 112.915 58.2379C112.305 58.9388 111.999 59.9173 111.999 61.1803V63.4912C111.999 64.7681 112.305 65.7466 112.915 66.4267C113.526 67.1068 114.352 67.4468 115.386 67.4468C116.212 67.4468 116.892 67.2248 117.412 66.7737C117.94 66.3226 118.321 65.7674 118.557 65.1082L120.806 66.4336C120.271 67.5301 119.563 68.3767 118.682 68.9874C117.801 69.5981 116.697 69.9035 115.379 69.9035" fill="#231F20"/>
<path d="M125.427 69.8966C124.851 69.8966 124.428 69.7508 124.157 69.4663C123.887 69.1818 123.748 68.814 123.748 68.3629V67.9882C123.748 67.5371 123.887 67.1693 124.157 66.8709C124.428 66.5794 124.858 66.4268 125.427 66.4268C125.996 66.4268 126.441 66.5725 126.711 66.8709C126.975 67.1624 127.107 67.5371 127.107 67.9882V68.3629C127.107 68.814 126.975 69.1818 126.711 69.4663C126.441 69.7508 126.017 69.8966 125.427 69.8966Z" fill="#231F20"/>
<path d="M190.202 50.5274L185.726 46.0791L182.166 49.6183C182.27 50.9091 182.319 52.0888 182.319 53.2061C182.319 58.9175 181.243 64.4414 179.126 69.6809H187.565C189.362 64.372 190.285 58.8342 190.285 53.2061C190.285 52.3456 190.258 51.4504 190.209 50.5274" fill="#EE3A87"/>
<path d="M194.956 55.2531C194.775 60.1664 193.963 64.9964 192.52 69.6807H201.5V49.4238L195.289 55.5862L194.949 55.2531H194.956Z" fill="#EE3A87"/>
<path d="M185.726 30.6535L176.163 40.1677L166.517 30.5771L162.097 34.9699L176.163 48.9603L177.246 47.8777L177.239 47.7805L177.357 47.7667L185.726 39.446L195.296 48.9603L201.507 42.7979V33.9984L195.296 40.1677L185.726 30.6535Z" fill="#25BDC1"/>
<path d="M195.296 14.5038L201.507 20.6801V4.31641H192.923L188.988 8.23037L195.296 14.5038Z" fill="#25BDC1"/>
<path d="M195.296 33.5319L201.5 27.3348C201.5 27.3348 201.493 27.3001 201.479 27.2862L195.296 21.1377L189.064 27.3348L195.296 33.5319Z" fill="#FDBD48"/>
<path d="M185.726 11.6299L179.501 17.82L185.726 24.0172L191.958 17.82L185.726 11.6299Z" fill="#FDBD48"/>
<path d="M159.203 16.093L147.357 4.31641H137.267L154.151 21.1104L159.203 16.093Z" fill="#FDBD48"/>
<path d="M177.725 4.31641L154.151 27.7447L135.754 9.45175V19.0146L149.543 32.7273L135.754 46.4193V54.5248L186.247 4.31641H177.725Z" fill="#FDBD48"/>
<path d="M169.931 27.3348L176.163 33.5319L182.395 27.3348L176.163 21.1377L169.931 27.3348Z" fill="#FDBD48"/>
<path d="M176.163 55.5876L167.246 46.7188C167.94 49.3558 168.308 52.09 168.308 54.859C168.308 60.0568 167.058 65.1088 164.685 69.6751H173.984C176.24 64.7757 177.447 59.571 177.579 54.1789L176.17 55.5807L176.163 55.5876Z" fill="#EE3A87"/>
<path d="M171.056 4.31641H154.033L162.541 12.7828L171.056 4.31641Z" fill="#25BDC1"/>
<path d="M158.321 38.7227L153.339 43.6776C155.504 47.0155 156.642 50.8462 156.642 54.8643C156.642 60.534 154.31 65.8428 150.375 69.6804H159.251C162.097 65.2391 163.596 60.1384 163.596 54.8643C163.596 49.0419 161.743 43.4 158.335 38.7227" fill="#EE3A87"/>
<path d="M135.754 25.6494V39.7924L142.867 32.7279L135.754 25.6494Z" fill="#25BDC1"/>
<path d="M177.725 4.31641H174.394H171.056L162.541 12.7828L154.033 4.31641H150.695H147.357L159.203 16.093L154.151 21.1104L137.267 4.31641H135.754V9.45175L154.151 27.7447L177.725 4.31641Z" fill="#231F20"/>
<path d="M135.754 19.0146V22.3318V25.649L142.867 32.7274L135.754 39.792V43.1022V46.4193L149.543 32.7274L135.754 19.0146Z" fill="#231F20"/>
<path d="M142.277 69.5632C148.134 66.9886 151.916 61.2149 151.916 54.8651C151.916 52.1031 151.222 49.466 149.897 47.0996L135.754 61.1663V69.6882H142.055L142.277 69.5702V69.5632Z" fill="#FDBD48"/>
<path d="M195.296 14.5038L188.988 8.23037L192.923 4.31641H186.254L135.761 54.5248V61.1591L149.904 47.0924C151.229 49.4588 151.923 52.1028 151.923 54.8579C151.923 61.2076 148.141 66.9814 142.284 69.556L142.055 69.674H150.369C154.303 65.8364 156.635 60.5276 156.635 54.8579C156.635 50.8398 155.497 47.0091 153.332 43.6712L158.315 38.7162C161.722 43.3936 163.575 49.0424 163.575 54.8579C163.575 60.132 162.076 65.2326 159.231 69.674H164.664C167.045 65.1077 168.287 60.0557 168.287 54.8579C168.287 52.089 167.919 49.3547 167.225 46.7177L176.143 55.5865L177.551 54.1847C177.419 59.5768 176.212 64.7746 173.957 69.681H179.106C181.222 64.4415 182.298 58.9176 182.298 53.2062C182.298 52.0889 182.249 50.9161 182.145 49.6184L185.705 46.0792L190.181 50.5275C190.23 51.4505 190.258 52.3457 190.258 53.2062C190.258 58.8343 189.335 64.3721 187.537 69.681H192.499C193.943 64.9967 194.755 60.1667 194.935 55.2534L195.275 55.5865L201.486 49.4241V42.7968L195.282 48.9522L185.712 39.438L177.336 47.7655L177.218 47.7794L177.232 47.8766L176.149 48.9522L162.083 34.9688L166.503 30.576L176.149 40.1666L185.719 30.6524L195.289 40.1666L201.493 33.9973V27.3352L195.289 33.5323L189.057 27.3352L195.289 21.1381L201.472 27.2866C201.472 27.2866 201.493 27.3213 201.493 27.3352V20.6732L195.289 14.5038H195.296ZM185.726 24.0181L179.494 17.821L185.726 11.6239L191.958 17.821L185.726 24.0181ZM176.163 33.5323L169.932 27.3352L176.163 21.1381L182.395 27.3352L176.163 33.5323Z" fill="#231F20"/>
</svg>
